<!-- <?xml version="1.0" standalone="no"?>
<!DOCTYPE svg PUBLIC "-//W3C//DTD SVG 20010904//EN"
 "http://www.w3.org/TR/2001/REC-SVG-20010904/DTD/svg10.dtd"> -->
<svg version="1.0" xmlns="http://www.w3.org/2000/svg"
 width="1048.000000pt" height="1070.000000pt" viewBox="0 0 1048.000000 1070.000000"
 preserveAspectRatio="xMidYMid meet">

<g transform="translate(0.000000,1070.000000) scale(0.100000,-0.100000)"
fill="#000000" stroke="none">
<path d="M4905 10613 c-963 -78 -1754 -352 -2525 -874 -289 -195 -514 -384
-780 -656 -421 -428 -720 -850 -981 -1387 -549 -1129 -683 -2414 -379 -3641
290 -1171 968 -2206 1921 -2930 1122 -853 2532 -1202 3920 -970 1358 228 2574
1009 3373 2165 539 780 853 1679 927 2650 15 202 6 755 -15 950 -158 1423
-849 2696 -1941 3576 -806 649 -1780 1034 -2814 1114 -122 9 -606 12 -706 3z
m865 -307 c957 -116 1800 -476 2539 -1085 162 -134 508 -480 641 -641 641
-775 1026 -1692 1136 -2700 21 -199 29 -665 15 -865 -91 -1245 -594 -2359
-1456 -3220 -535 -535 -1164 -928 -1865 -1166 -1075 -365 -2247 -337 -3300 78
-1044 412 -1932 1196 -2488 2198 -676 1219 -814 2697 -377 4030 586 1786 2117
3089 3935 3349 96 14 222 30 280 35 165 15 780 6 940 -13z"/>
<path d="M4921 9977 c-6 -8 -47 -22 -91 -32 -148 -34 -220 -94 -220 -185 0
-56 10 -73 41 -68 25 3 27 16 13 85 -5 28 -2 37 28 67 30 30 113 66 153 66 6
0 -56 -135 -138 -300 -167 -339 -207 -397 -269 -388 -18 3 -39 3 -45 1 -20 -7
-15 -51 6 -63 64 -34 158 50 241 215 30 60 59 113 64 116 5 4 38 10 74 14 36
4 71 9 79 12 16 6 18 -88 4 -150 l-9 -39 46 6 c26 3 73 8 105 12 41 4 57 10
57 21 0 12 -11 14 -52 11 l-53 -3 -3 308 c-1 169 -6 307 -11 307 -5 0 -14 -6
-20 -13z m-49 -276 l-3 -140 -47 -6 c-26 -3 -57 -8 -69 -11 -13 -2 -23 0 -23
6 0 10 138 290 143 290 1 0 1 -63 -1 -139z"/>
<path d="M4115 9939 c-110 -60 -145 -120 -145 -248 0 -126 28 -471 41 -509 16
-47 56 -44 102 8 35 38 77 109 77 130 0 22 -27 8 -44 -24 -26 -48 -64 -83 -70
-65 -9 27 -45 564 -40 586 6 22 25 32 100 52 46 12 60 32 44 62 -12 21 -35 24
-65 8z"/>
<path d="M5293 9775 c-62 -27 -91 -112 -59 -173 8 -16 33 -50 55 -77 47 -57
52 -91 17 -124 -18 -17 -33 -22 -62 -19 -35 3 -39 6 -42 33 -4 36 -19 55 -42
55 -28 0 -43 -25 -35 -60 20 -91 199 -90 255 2 38 63 23 120 -60 215 -38 43
-45 69 -26 98 22 33 43 31 83 -7 27 -26 37 -30 51 -22 9 6 18 23 20 37 6 49
-84 73 -155 42z"/>
<path d="M5659 9737 c-77 -51 -81 -124 -10 -229 48 -71 50 -90 16 -123 -45
-46 -115 -27 -115 31 0 38 -21 54 -49 37 -36 -23 -24 -86 21 -109 42 -22 124
-22 166 0 18 9 42 31 52 49 33 53 26 93 -30 182 -27 44 -50 84 -50 90 0 21 31
55 50 55 11 0 32 -13 47 -30 43 -48 84 -34 69 24 -12 47 -111 61 -167 23z"/>
<path d="M6032 9679 c-117 -58 -205 -246 -158 -338 31 -59 124 -78 200 -41 52
25 121 92 149 144 16 32 21 59 22 119 0 76 -1 79 -33 108 -27 24 -41 29 -85
29 -33 0 -68 -8 -95 -21z m119 -51 c17 -31 6 -134 -21 -196 -25 -59 -79 -112
-114 -112 -54 0 -76 73 -52 171 36 142 143 220 187 137z"/>
<path d="M6976 9644 c-34 -34 -8 -82 39 -70 26 7 42 43 31 71 -7 20 -50 19
-70 -1z"/>
<path d="M6483 9561 c-56 -26 -135 -106 -166 -167 -66 -132 -39 -207 76 -207
72 0 167 31 167 55 0 22 3 22 -50 3 -55 -19 -90 -19 -119 1 -20 14 -23 23 -18
60 10 89 106 234 154 234 11 0 37 -13 58 -30 21 -16 45 -30 54 -30 22 0 41 19
41 40 0 53 -119 78 -197 41z"/>
<path d="M3733 9513 c-3 -10 -27 -29 -55 -42 -30 -14 -61 -39 -79 -64 -80
-111 -93 -333 -24 -403 49 -49 107 -18 156 84 18 35 24 42 27 27 11 -72 27
-82 74 -46 29 23 92 137 83 151 -11 17 -19 11 -43 -31 -13 -22 -29 -38 -35
-36 -15 5 -42 130 -58 270 -9 80 -16 107 -27 107 -7 0 -16 -8 -19 -17z m-15
-185 c20 -139 12 -197 -32 -241 -42 -41 -77 -6 -97 96 -16 85 -3 145 41 189
21 21 46 38 57 38 17 0 22 -11 31 -82z"/>
<path d="M6775 9461 c-29 -10 -51 -24 -53 -34 -4 -21 5 -21 53 -1 21 8 41 12
46 7 5 -5 -20 -49 -57 -98 -114 -156 -140 -215 -112 -243 17 -17 49 -15 123
10 44 14 65 26 63 35 -4 17 -7 17 -58 2 -70 -21 -67 -10 50 156 102 146 104
150 84 169 -20 21 -76 20 -139 -3z"/>
<path d="M3247 9284 c-15 -14 -39 -60 -55 -101 -16 -42 -32 -71 -35 -67 -3 5
-10 28 -16 52 -13 47 -27 52 -60 20 -24 -22 -67 -107 -73 -143 -6 -38 25 -20
40 23 8 24 19 41 25 39 7 -2 34 -80 60 -173 27 -93 50 -170 52 -172 5 -5 65
28 65 36 0 4 -14 52 -30 106 -34 112 -37 162 -14 228 17 50 49 87 63 72 5 -5
21 -62 36 -126 41 -179 78 -236 125 -193 19 17 53 90 64 138 11 45 -21 34 -35
-13 -7 -22 -18 -45 -25 -51 -18 -14 -27 10 -65 170 -30 125 -43 160 -63 173
-19 13 -32 9 -59 -18z"/>
<path d="M7152 9299 c-142 -27 -282 -152 -282 -252 0 -54 27 -71 102 -64 35 3
74 9 88 13 l25 7 -22 -25 c-31 -33 -29 -56 5 -69 47 -19 182 9 182 37 0 16 -3
16 -51 5 -64 -15 -64 0 -1 85 32 44 86 112 120 151 34 40 62 74 62 77 0 4 -13
6 -29 6 -16 0 -44 6 -62 14 -50 20 -89 24 -137 15z m78 -57 l23 -18 -62 -72
c-95 -111 -150 -143 -205 -122 -31 12 -33 37 -7 88 20 38 90 111 126 130 32
18 100 14 125 -6z"/>
<path d="M7586 9142 l-38 -40 -35 20 c-31 19 -36 19 -50 6 -13 -14 -12 -18 16
-34 17 -10 31 -21 31 -24 0 -3 -34 -39 -76 -80 -90 -89 -144 -160 -144 -188 0
-47 70 -62 208 -45 40 4 52 10 50 21 -2 13 -15 15 -60 13 -68 -3 -98 5 -98 25
0 8 43 60 96 114 l96 99 45 -26 c40 -23 46 -24 60 -11 13 14 10 18 -24 38 -21
13 -40 25 -42 27 -3 2 17 26 44 53 27 27 47 52 44 54 -3 3 -23 8 -44 11 -37 6
-43 3 -79 -33z"/>
<path d="M4965 9094 c-635 -64 -1137 -233 -1654 -555 -99 -62 -310 -215 -381
-278 l-35 -30 2355 0 2355 0 -35 30 c-78 68 -281 215 -399 288 -456 284 -916
449 -1466 527 -105 15 -641 28 -740 18z m730 -88 c581 -80 1079 -271 1563
-599 72 -49 132 -93 132 -98 0 -5 -931 -9 -2140 -9 -1209 0 -2140 4 -2140 9 0
11 238 172 364 246 139 82 378 194 536 253 300 112 599 179 965 216 103 10
606 -3 720 -18z"/>
<path d="M8043 9039 c-26 -10 -39 -45 -23 -64 29 -35 99 1 86 43 -8 23 -33 32
-63 21z"/>
<path d="M2750 8984 c-85 -72 -100 -224 -35 -354 31 -61 65 -91 112 -97 149
-20 226 227 123 391 -55 86 -139 111 -200 60z m99 -83 c98 -98 129 -259 56
-293 -37 -17 -91 24 -137 102 -53 91 -62 175 -22 214 26 27 61 19 103 -23z"/>
<path d="M2352 8948 c-17 -17 -15 -54 4 -72 30 -30 64 -12 64 34 0 29 -16 50
-40 50 -9 0 -21 -5 -28 -12z"/>
<path d="M7762 8913 c-24 -3 -32 -9 -30 -21 2 -13 13 -16 50 -13 25 1 48 -1
51 -6 3 -5 -30 -37 -74 -72 -124 -101 -179 -157 -179 -184 0 -40 20 -48 112
-45 66 2 83 6 83 18 0 12 -11 14 -52 12 -31 -2 -53 0 -53 6 0 13 74 83 183
172 48 39 87 78 87 85 0 35 -93 60 -178 48z"/>
<path d="M2448 8743 c-27 -32 -38 -61 -45 -123 -5 -52 -4 -60 11 -60 11 0 16
9 16 28 0 36 10 72 21 72 4 0 39 -64 77 -142 38 -79 79 -151 90 -161 43 -39
82 11 97 126 5 38 3 47 -9 47 -10 0 -17 -15 -22 -45 -3 -25 -10 -47 -14 -50
-14 -8 -45 43 -113 188 -39 81 -71 137 -80 137 -8 0 -21 -8 -29 -17z"/>
<path d="M8003 8666 c-90 -28 -186 -116 -198 -179 -15 -77 49 -144 149 -154
150 -16 306 93 306 213 0 102 -126 160 -257 120z m161 -42 c39 -38 6 -118 -79
-193 -82 -71 -173 -83 -196 -24 -13 34 12 88 69 147 74 76 168 108 206 70z"/>
<path d="M2118 8569 l-17 -40 31 -50 31 -50 -27 -28 c-18 -18 -24 -34 -20 -45
6 -15 10 -14 35 10 16 15 31 26 33 23 2 -2 33 -53 70 -114 72 -119 125 -178
151 -169 25 10 43 56 60 149 8 48 15 89 15 91 0 2 -7 4 -14 4 -10 0 -19 -20
-27 -61 -7 -33 -19 -67 -27 -76 -14 -14 -18 -13 -38 10 -30 35 -134 212 -134
228 0 7 14 27 30 44 21 22 29 37 24 49 -6 15 -12 12 -45 -20 l-38 -37 -28 47
c-48 81 -46 80 -65 35z"/>
<path d="M8310 8390 c0 -5 11 -12 25 -15 14 -3 36 -7 50 -10 14 -3 25 -9 25
-13 0 -6 -190 -122 -301 -183 -14 -8 17 -59 36 -59 7 0 55 25 106 55 51 30
108 58 127 61 50 10 132 -3 154 -23 19 -17 19 -18 1 -31 -10 -7 -54 -32 -97
-54 -109 -55 -153 -84 -171 -112 -33 -50 21 -86 128 -86 62 0 61 16 -3 24 -91
12 -76 29 107 125 103 54 130 72 138 95 8 24 6 31 -13 46 -12 10 -48 24 -80
30 -31 7 -73 15 -92 19 l-34 7 47 27 c26 15 47 32 47 37 0 5 -11 18 -25 29
-39 30 -175 55 -175 31z"/>
<path d="M1956 8284 c-3 -9 -6 -22 -6 -30 0 -7 -15 -34 -32 -60 -32 -44 -33
-50 -33 -137 1 -72 6 -105 24 -150 30 -76 78 -138 124 -160 72 -36 109 3 111
119 l1 75 25 -31 c14 -17 31 -30 37 -30 30 0 63 128 49 184 -10 41 -24 30 -31
-24 -4 -27 -11 -50 -16 -50 -12 0 -110 121 -180 223 -33 48 -62 87 -63 87 -2
0 -7 -7 -10 -16z m67 -191 c63 -86 87 -135 87 -183 0 -83 -35 -102 -94 -50
-68 60 -115 169 -97 222 15 42 40 80 51 76 4 -2 29 -31 53 -65z"/>
<path d="M2650 8003 c-324 -331 -586 -720 -769 -1141 l-40 -92 1385 0 1384 0
2 -2567 3 -2568 40 -7 c215 -36 308 -43 605 -43 310 1 398 8 633 51 l87 16 0
2559 0 2559 1340 0 1339 0 -50 113 c-189 424 -442 796 -764 1125 l-130 132
-2465 0 -2465 0 -135 -137z m2588 -224 c23 -17 68 -41 99 -53 35 -13 59 -29
61 -39 3 -15 -8 -17 -102 -17 -120 0 -126 4 -126 83 0 67 8 70 68 26z m150
-348 c28 -13 52 -25 52 -28 0 -2 -9 -21 -20 -43 -29 -56 -26 -101 8 -132 49
-46 100 -43 153 8 l27 25 22 -36 c12 -20 23 -47 23 -59 0 -50 -72 -116 -127
-116 -41 0 -104 36 -186 108 -117 102 -194 125 -289 87 -84 -35 -136 -154
-111 -254 16 -63 72 -166 121 -224 23 -26 139 -135 258 -241 360 -322 427
-401 467 -556 22 -81 22 -247 0 -345 -17 -79 -65 -221 -105 -310 -26 -57 -89
-141 -98 -131 -2 2 20 66 51 143 78 196 100 288 92 385 -7 85 -45 226 -77 291
-37 72 -76 113 -267 279 -444 385 -485 428 -540 567 -23 57 -26 81 -27 181 0
110 2 118 33 184 57 121 129 194 225 227 77 27 242 22 315 -10z m-83 -502 c50
-46 57 -77 30 -130 -19 -35 -37 -29 -84 28 -25 30 -31 47 -31 84 0 74 20 78
85 18z m27 -896 c9 -10 23 -34 33 -53 20 -39 22 30 -26 -880 -17 -316 -29
-620 -27 -675 4 -91 8 -108 43 -184 l39 -83 -12 -77 c-17 -114 -40 -183 -60
-179 -29 6 -42 85 -52 323 -13 335 -73 890 -115 1069 -13 60 -13 70 0 96 8 16
35 41 59 55 67 39 81 76 81 215 0 63 -4 170 -9 237 -5 67 -6 129 -3 137 8 21
30 20 49 -1z m-362 -1559 c-44 -89 -51 -229 -20 -387 31 -153 62 -210 173
-319 51 -51 139 -127 194 -168 56 -41 100 -76 98 -78 -9 -9 -164 66 -243 118
-152 100 -269 247 -314 393 -27 90 -22 242 11 329 19 49 107 166 117 155 2 -2
-5 -21 -16 -43z m335 -1110 c8 -4 22 -19 30 -34 22 -42 10 -653 -21 -1083 -13
-185 -24 -349 -24 -364 0 -14 -2 -24 -4 -22 -14 14 -55 783 -59 1102 -5 344
-4 358 15 382 20 26 34 30 63 19z"/>
<path d="M1557 8118 c-27 -21 -49 -87 -42 -127 11 -61 53 -120 178 -248 66
-68 115 -123 110 -123 -24 0 -312 62 -373 80 -37 11 -72 20 -77 20 -16 0 -73
-181 -73 -233 0 -84 35 -144 104 -179 52 -26 88 -18 84 20 -3 24 -8 28 -45 33
-50 6 -88 38 -104 86 -9 27 -7 48 6 104 10 38 21 71 25 74 12 7 212 -177 287
-265 116 -134 129 -193 50 -235 -58 -31 -63 -75 -8 -75 48 0 101 71 101 136 0
68 -37 122 -189 277 -79 81 -141 147 -138 147 4 0 67 -13 140 -29 128 -29 322
-61 366 -61 16 0 -25 46 -158 178 -177 175 -241 254 -241 299 0 13 14 37 30
55 33 34 39 63 14 72 -22 8 -28 8 -47 -6z"/>
<path d="M8745 7721 c-96 -24 -165 -88 -165 -154 0 -133 208 -210 363 -134
188 93 110 300 -112 296 -31 -1 -69 -4 -86 -8z m192 -51 c35 -13 54 -46 43
-76 -4 -11 -25 -35 -46 -53 -111 -98 -284 -111 -284 -21 0 42 42 84 122 125
73 36 114 42 165 25z"/>
<path d="M9100 7390 c0 -6 9 -28 20 -50 11 -22 20 -43 20 -48 0 -5 -111 -35
-246 -67 -189 -45 -252 -56 -272 -49 -20 7 -36 28 -63 84 -41 83 -59 101 -83
81 -46 -38 12 -136 109 -186 54 -27 67 -30 154 -29 78 0 126 8 258 42 89 23
168 42 175 42 8 0 26 -25 41 -55 19 -39 32 -55 47 -55 25 0 25 1 -5 60 -14 27
-25 54 -25 59 0 13 128 41 189 41 62 0 86 -20 102 -85 12 -49 29 -68 55 -63
35 7 41 35 15 83 -27 50 -92 99 -155 116 -38 11 -147 7 -221 -7 -29 -5 -32 -3
-55 45 -15 34 -30 51 -42 51 -10 0 -18 -5 -18 -10z"/>
<path d="M1767 6563 c-147 -445 -205 -840 -194 -1317 13 -583 139 -1094 393
-1606 277 -556 674 -1024 1171 -1381 296 -213 665 -399 1004 -507 95 -31 328
-92 348 -92 8 0 11 227 11 744 l0 744 -57 23 c-201 79 -445 225 -608 361 -445
372 -726 869 -822 1453 -25 154 -25 553 0 710 34 215 97 425 182 616 41 90
136 263 176 321 11 14 19 29 19 32 0 3 -357 6 -794 6 l-794 0 -35 -107z m1491
30 c-1 -5 -38 -78 -80 -163 -91 -185 -138 -307 -183 -484 -58 -229 -70 -331
-69 -611 0 -275 13 -384 73 -618 144 -559 512 -1072 996 -1392 89 -59 311
-176 393 -208 l42 -17 0 -676 0 -676 -37 7 c-66 12 -266 73 -373 114 -507 191
-919 458 -1300 840 -627 630 -992 1424 -1071 2331 -15 168 -6 601 15 758 34
250 86 488 156 705 l31 97 705 0 c388 0 704 -3 702 -7z"/>
<path d="M7142 6648 c203 -310 329 -655 379 -1033 15 -114 15 -432 0 -550 -89
-694 -455 -1294 -1018 -1671 -54 -36 -171 -102 -260 -146 l-163 -81 0 -745 0
-744 37 7 c80 15 281 78 421 131 674 257 1266 717 1690 1311 576 809 809 1809
656 2813 -28 183 -93 450 -150 620 l-38 110 -784 0 -784 0 14 -22z m1542 -160
c74 -239 118 -440 153 -698 26 -192 26 -707 0 -900 -137 -1021 -614 -1868
-1402 -2490 -232 -183 -570 -378 -850 -490 -104 -42 -356 -127 -400 -136 l-35
-6 1 678 0 679 137 66 c419 204 771 540 1011 966 286 508 375 1137 245 1723
-48 215 -130 435 -230 616 -27 49 -50 92 -52 97 -2 4 309 7 692 7 l695 0 35
-112z"/>
<path d="M1580 3355 c-74 -21 -138 -62 -173 -112 -40 -56 -48 -150 -19 -215
30 -68 84 -121 154 -153 53 -24 74 -28 152 -28 131 1 216 38 279 124 26 36 32
54 35 109 3 56 0 75 -21 116 -54 107 -146 163 -275 170 -50 3 -96 -1 -132 -11z
m279 -72 c18 -9 46 -34 62 -56 98 -135 -68 -309 -297 -311 -69 -1 -85 2 -115
23 -50 34 -72 68 -77 122 -3 37 0 56 17 83 80 129 284 198 410 139z"/>
<path d="M8793 3308 c-48 -53 -57 -120 -23 -175 30 -50 51 -56 163 -49 86 6
102 5 118 -10 25 -22 25 -75 0 -105 -17 -22 -22 -23 -51 -12 -42 16 -60 7 -60
-28 0 -34 29 -53 69 -44 35 7 65 38 86 87 51 123 -31 226 -157 198 -76 -16
-122 -13 -142 9 -10 11 -16 28 -14 37 3 16 16 26 78 54 8 4 15 18 15 31 0 35
-52 39 -82 7z"/>
<path d="M8528 3044 c-3 -5 -9 -24 -13 -42 -6 -28 -2 -39 29 -77 l36 -44 -19
-32 c-15 -24 -17 -36 -9 -46 15 -19 22 -16 41 17 l18 30 52 -57 c128 -144 174
-185 204 -181 41 4 57 58 49 167 -3 46 -7 86 -10 88 -14 15 -26 -15 -26 -67 0
-67 -7 -90 -25 -90 -13 0 -149 143 -182 190 -14 19 -12 25 12 61 21 32 24 43
14 55 -17 21 -22 18 -48 -28 l-24 -42 -47 54 c-26 29 -49 49 -52 44z"/>
<path d="M1852 2850 c2 -8 22 -18 43 -24 21 -6 40 -16 42 -22 2 -7 -63 -36
-154 -70 -87 -31 -162 -61 -167 -65 -14 -12 26 -70 44 -63 152 61 196 74 257
74 52 0 75 -5 115 -27 33 -18 47 -31 43 -41 -3 -8 4 -26 16 -39 13 -12 21 -25
18 -27 -2 -2 -51 -25 -109 -52 -142 -65 -184 -93 -188 -126 -4 -35 33 -63 117
-88 90 -26 105 -28 108 -9 3 11 -10 19 -47 28 -27 7 -60 21 -73 32 -22 19 -22
19 -2 35 20 16 132 70 209 101 42 18 37 20 81 -40 9 -13 20 -17 34 -12 21 6
21 7 -9 48 l-30 41 66 30 66 31 -39 22 -40 23 -51 -22 c-51 -22 -52 -22 -66
-2 -9 12 -11 23 -5 29 5 5 9 19 9 32 0 31 -41 50 -131 61 l-74 8 43 14 c58 18
70 35 46 61 -26 29 -84 57 -134 65 -33 5 -42 4 -38 -6z"/>
<path d="M8451 2742 c-42 -42 -58 -101 -40 -149 23 -61 67 -83 161 -83 70 0
82 -3 103 -25 30 -29 31 -50 5 -92 -22 -36 -39 -41 -74 -18 -32 21 -56 10 -56
-26 0 -53 68 -66 120 -23 63 53 84 130 56 199 -21 48 -60 65 -154 65 -89 0
-132 21 -132 65 0 29 13 38 65 45 37 5 40 8 40 35 0 27 -4 30 -33 33 -25 3
-39 -3 -61 -26z"/>
<path d="M8142 2678 c-26 -26 -3 -88 32 -88 36 0 48 56 18 83 -22 20 -34 21
-50 5z"/>
<path d="M8252 2480 c-29 -46 -37 -180 -11 -180 5 0 9 15 9 34 0 39 8 66 20
66 4 0 39 -50 76 -111 112 -180 145 -209 178 -156 12 19 21 95 17 150 -2 35
-19 16 -24 -28 -2 -26 -8 -49 -12 -53 -10 -10 -45 37 -130 176 -78 125 -98
142 -123 102z"/>
<path d="M2499 2425 c-20 -7 -125 -68 -234 -134 -109 -67 -211 -129 -228 -137
l-30 -16 27 -26 c26 -26 28 -26 54 -11 191 114 209 121 296 107 27 -4 56 -14
64 -21 17 -17 0 -31 -130 -101 -116 -62 -150 -91 -146 -125 4 -33 37 -49 117
-57 52 -6 61 -5 61 10 0 12 -9 16 -37 16 -21 0 -45 4 -53 10 -22 14 8 41 93
86 183 94 217 125 182 164 -18 20 -131 50 -187 50 -32 0 -31 1 32 41 152 97
219 131 242 125 13 -3 38 -27 56 -52 36 -48 65 -56 86 -22 8 13 5 23 -14 44
-55 59 -166 81 -251 49z"/>
<path d="M8127 2343 c-4 -3 -7 -12 -7 -19 0 -6 -14 -27 -31 -45 -47 -50 -62
-87 -67 -165 -7 -111 22 -210 84 -284 23 -26 33 -31 61 -28 21 3 32 0 30 -6
-34 -93 -32 -169 8 -206 21 -19 32 -22 76 -18 47 5 57 11 100 55 97 102 91
196 -19 337 -55 68 -107 157 -176 294 -48 96 -48 96 -59 85z m53 -225 c52
-105 61 -153 39 -202 -28 -60 -77 -34 -129 69 -44 87 -47 153 -12 203 13 17
30 32 38 32 9 0 35 -42 64 -102z m190 -285 c47 -99 4 -213 -81 -213 -74 0 -83
48 -48 238 l22 115 43 -49 c24 -27 52 -68 64 -91z"/>
<path d="M7486 2130 c-51 -45 -76 -104 -76 -179 0 -50 12 -99 61 -244 109
-323 131 -364 178 -331 44 31 97 178 71 194 -10 6 -19 -7 -34 -53 -22 -64 -39
-80 -51 -50 -21 51 -174 495 -179 519 -8 37 -1 46 59 81 51 30 70 67 43 84
-22 14 -36 10 -72 -21z"/>
<path d="M7785 2016 c-64 -28 -95 -93 -95 -195 0 -201 136 -335 244 -241 51
45 69 101 65 202 -3 66 -9 93 -30 133 -46 87 -122 129 -184 101z m77 -107 c49
-51 85 -123 93 -185 6 -41 3 -53 -15 -76 -29 -38 -53 -35 -103 12 -116 106
-144 290 -45 290 23 0 41 -10 70 -41z"/>
<path d="M2563 1991 c-72 -25 -131 -68 -165 -120 -68 -108 -1 -201 145 -201
83 0 145 22 202 72 57 50 75 84 75 143 0 36 -6 51 -25 71 -55 55 -138 68 -232
35z m173 -46 c24 -36 3 -87 -65 -155 -92 -94 -191 -116 -215 -47 -12 34 9 81
64 141 76 82 182 113 216 61z"/>
<path d="M2858 1803 c-10 -2 -18 -13 -18 -22 0 -16 5 -17 42 -11 89 17 78 1
-123 -189 -107 -100 -206 -189 -221 -197 -19 -10 -34 -11 -51 -5 -16 6 -28 6
-35 -1 -8 -8 7 -22 51 -51 34 -22 79 -53 100 -69 23 -19 44 -28 54 -24 14 6
10 13 -21 45 -45 46 -45 46 40 125 65 59 78 65 87 41 9 -23 83 -55 126 -55
120 0 298 129 317 229 6 30 3 38 -22 59 -26 23 -34 24 -111 19 l-83 -5 30 35
c35 39 34 52 -1 70 -23 12 -125 16 -161 6z m252 -158 c20 -24 3 -61 -54 -118
-57 -57 -130 -98 -179 -99 -33 -1 -77 39 -77 71 0 25 100 117 152 141 52 24
140 27 158 5z"/>
<path d="M7232 1629 c-80 -52 -115 -196 -77 -324 34 -117 118 -165 196 -112
71 48 103 127 97 242 -8 161 -116 258 -216 194z m75 -71 c55 -62 99 -185 87
-243 -16 -78 -67 -99 -117 -47 -72 75 -108 241 -63 291 25 28 67 27 93 -1z"/>
<path d="M6455 1578 c-80 -44 -125 -129 -125 -238 -1 -157 24 -530 34 -530 6
0 22 3 35 7 24 6 24 6 18 120 -7 142 6 195 63 255 22 23 43 38 48 34 4 -4 9
-79 12 -166 4 -137 8 -161 24 -179 11 -12 26 -21 34 -21 36 0 135 141 110 156
-7 4 -18 -2 -27 -16 -31 -47 -49 -65 -58 -57 -4 5 -10 84 -13 175 -3 92 -9
173 -13 180 -12 18 -51 15 -80 -8 -14 -11 -44 -47 -66 -80 -22 -33 -42 -57
-44 -53 -3 5 -8 74 -12 154 -8 163 -3 184 45 193 16 3 44 9 60 12 33 6 53 33
44 58 -7 19 -59 21 -89 4z"/>
<path d="M3277 1506 c-104 -43 -174 -103 -204 -175 -31 -74 12 -118 106 -108
32 4 66 10 77 14 15 6 14 1 -8 -26 -33 -39 -34 -47 -9 -61 44 -23 206 -4 195
24 -4 9 -19 12 -54 8 -32 -3 -50 -1 -50 6 0 13 143 182 204 242 25 24 46 48
46 52 0 4 -13 8 -29 8 -16 0 -48 9 -72 20 -60 27 -130 25 -202 -4z m143 -31
c17 -9 30 -19 30 -23 0 -4 -36 -44 -79 -89 -76 -78 -117 -103 -172 -103 -28 0
-51 34 -40 61 17 45 69 106 117 137 53 36 98 41 144 17z"/>
<path d="M6928 1460 c-14 -10 -42 -52 -63 -92 l-39 -73 -10 54 c-6 30 -16 56
-22 58 -36 12 -153 -158 -119 -171 10 -3 21 8 35 34 38 75 39 75 70 -145 12
-82 24 -155 26 -162 5 -21 69 12 67 34 -1 10 -9 65 -17 123 -17 112 -14 135
22 206 24 48 49 71 62 58 5 -5 16 -69 24 -142 19 -158 34 -202 70 -202 14 0
35 10 46 22 25 27 70 120 64 130 -10 16 -19 7 -43 -37 -13 -25 -27 -45 -32
-45 -13 0 -27 67 -40 195 -16 168 -40 204 -101 155z"/>
<path d="M4367 1426 c-56 -21 -100 -58 -143 -124 l-38 -60 -53 5 c-37 4 -66 1
-98 -12 -133 -50 -258 -219 -233 -312 14 -51 83 -57 170 -14 21 10 38 16 36
12 -42 -82 -37 -95 35 -89 67 6 155 44 139 60 -9 9 -18 9 -37 0 -36 -16 -65
-15 -65 3 0 14 203 375 257 455 33 50 45 54 103 29 63 -27 94 -23 98 13 3 22
-2 30 -23 38 -36 14 -102 12 -148 -4z m-244 -227 c12 -7 23 -13 25 -14 12 -10
-109 -199 -141 -220 -46 -30 -84 -35 -109 -16 -22 18 -22 19 -4 65 25 65 97
159 137 179 40 20 63 21 92 6z"/>
<path d="M3663 1345 c-64 -32 -146 -119 -178 -187 -31 -67 -31 -93 0 -123 20
-21 34 -25 81 -25 79 0 176 28 171 49 -2 9 -10 14 -18 12 -8 -2 -44 -6 -80 -8
-60 -5 -68 -3 -78 15 -9 16 -8 30 5 62 16 39 18 40 62 40 25 0 75 5 111 11 53
10 73 19 98 44 95 95 -37 178 -174 110z m108 -15 c49 -27 -3 -93 -87 -110 -30
-6 -60 -10 -66 -8 -14 5 78 107 107 119 26 10 24 10 46 -1z"/>
<path d="M4548 1358 c-25 -20 -31 -54 -13 -72 20 -20 25 -20 53 0 24 17 29 53
10 72 -15 15 -30 15 -50 0z"/>
<path d="M5692 1338 c-7 -7 -12 -25 -12 -40 0 -43 -31 -53 -131 -39 -116 16
-227 14 -281 -5 -59 -20 -121 -73 -147 -127 -40 -83 -21 -203 32 -195 31 4 33
35 6 84 -22 42 -22 43 -5 89 28 73 114 115 234 115 l34 0 -6 -43 c-15 -100
-105 -440 -122 -458 -9 -11 -31 -23 -48 -27 -17 -5 -32 -15 -34 -23 -2 -13 48
-15 261 -10 17 1 27 6 27 16 0 12 -13 15 -59 15 l-59 0 18 78 c9 42 36 159 60
258 l43 182 81 4 c94 5 138 24 155 67 21 48 -14 92 -47 59z"/>
<path d="M6112 1179 c-78 -39 -131 -146 -139 -279 -4 -64 -1 -81 19 -120 23
-45 23 -45 74 -45 45 1 59 6 106 43 57 44 85 82 73 102 -4 7 -24 -5 -55 -34
-86 -80 -136 -55 -147 73 -7 77 12 163 42 191 23 22 29 23 72 13 54 -13 83 -3
83 27 0 22 -36 50 -65 50 -11 0 -39 -10 -63 -21z"/>
<path d="M4385 1151 c-61 -28 -82 -47 -69 -61 8 -8 20 -6 45 9 64 39 65 24 3
-90 -55 -102 -94 -192 -94 -217 0 -51 61 -51 149 -1 41 24 50 33 41 44 -9 11
-19 9 -55 -12 l-45 -25 0 23 c0 12 34 86 75 165 41 78 75 149 75 157 0 32 -65
36 -125 8z"/>
<path d="M5750 1112 c-73 -39 -140 -182 -140 -299 0 -125 38 -161 129 -123 59
26 147 111 138 135 -5 13 -17 7 -62 -30 -82 -66 -125 -57 -125 27 0 29 6 37
48 63 110 68 152 118 152 179 0 60 -71 84 -140 48z m59 -54 c13 -35 -6 -74
-56 -118 -25 -22 -50 -40 -54 -40 -9 0 -3 44 13 100 21 70 80 105 97 58z"/>
<path d="M4727 1106 c-110 -40 -207 -180 -206 -301 0 -85 13 -100 92 -100 77
0 177 42 177 74 0 20 -1 19 -52 -4 -69 -32 -103 -32 -124 0 -44 67 51 295 123
295 8 0 31 -11 51 -25 42 -29 55 -31 75 -10 23 22 9 55 -29 71 -41 17 -58 17
-107 0z"/>
</g>
</svg>
